<svg xmlns="http://www.w3.org/2000/svg" viewBox="0 0 200 200">
  <!-- Gradient definitions -->
  <defs>
    <linearGradient id="bubbleGradient" x1="0%" y1="0%" x2="100%" y2="100%">
      <stop offset="0%" style="stop-color:#25D366"/> <!-- WhatsApp green -->
      <stop offset="100%" style="stop-color:#229ED9"/> <!-- Telegram blue -->
    </linearGradient>
    <filter id="shadow" x="-20%" y="-20%" width="140%" height="140%">
      <feGaussianBlur in="SourceAlpha" stdDeviation="3"/>
      <feOffset dx="2" dy="2"/>
      <feComponentTransfer>
        <feFuncA type="linear" slope="0.3"/>
      </feComponentTransfer>
      <feMerge>
        <feMergeNode/>
        <feMergeNode in="SourceGraphic"/>
      </feMerge>
    </filter>
  </defs>

  <!-- Main chat bubble -->
  <path 
    d="M165 95c0 35.676-28.924 64.6-64.6 64.6-13.273 0-25.62-3.995-35.89-10.84l-29.11 7.74 7.74-29.11C36.395 119.62 32.4 107.273 32.4 94c0-35.676 28.924-64.6 64.6-64.6S165 59.324 165 95z"
    fill="url(#bubbleGradient)"
    stroke="#ffffff"
    stroke-width="6"
    stroke-linecap="round"
    stroke-linejoin="round"
    filter="url(#shadow)"
  />

  <!-- Decorative swoosh -->
  <path
    d="M70 105c10-15 25-25 60-25"
    fill="none"
    stroke="#ffffff"
    stroke-width="8"
    stroke-linecap="round"
    opacity="0.7"
  />

  <!-- Chat dots with animation -->
  <g transform="translate(0, 5)">
    <circle cx="80" cy="95" r="6" fill="white">
      <animate attributeName="opacity" values="1;0.3;1" dur="2s" repeatCount="indefinite" begin="0s"/>
    </circle>
    <circle cx="100" cy="95" r="6" fill="white">
      <animate attributeName="opacity" values="1;0.3;1" dur="2s" repeatCount="indefinite" begin="0.3s"/>
    </circle>
    <circle cx="120" cy="95" r="6" fill="white">
      <animate attributeName="opacity" values="1;0.3;1" dur="2s" repeatCount="indefinite" begin="0.6s"/>
    </circle>
  </g>
</svg>
