<svg xmlns="http://www.w3.org/2000/svg" viewBox="0 0 500 500">
  <!-- Gradient definitions -->
  <defs>
    <linearGradient id="bubbleGradient" x1="0%" y1="0%" x2="100%" y2="100%">
      <stop offset="0%" style="stop-color:#25D366"/>
      <stop offset="100%" style="stop-color:#229ED9"/>
    </linearGradient>
    <filter id="shadow" x="-20%" y="-20%" width="140%" height="140%">
      <feGaussianBlur in="SourceAlpha" stdDeviation="8"/>
      <feOffset dx="5" dy="5"/>
      <feComponentTransfer>
        <feFuncA type="linear" slope="0.3"/>
      </feComponentTransfer>
      <feMerge>
        <feMergeNode/>
        <feMergeNode in="SourceGraphic"/>
      </feMerge>
    </filter>
  </defs>

  <!-- Main chat bubble -->
  <path 
    d="M412.5 237.5c0 89.19-72.31 161.5-161.5 161.5-33.18 0-64.05-9.99-89.725-27.1l-72.775 19.35 19.35-72.775C90.49 291.55 80.5 260.68 80.5 227.5c0-89.19 72.31-161.5 161.5-161.5s161.5 72.31 161.5 161.5z"
    fill="url(#bubbleGradient)"
    stroke="#ffffff"
    stroke-width="15"
    stroke-linecap="round"
    stroke-linejoin="round"
    filter="url(#shadow)"
  />

  <!-- Decorative swoosh -->
  <path
    d="M175 262.5c25-37.5 62.5-62.5 150-62.5"
    fill="none"
    stroke="#ffffff"
    stroke-width="20"
    stroke-linecap="round"
    opacity="0.7"
  />

  <!-- Chat dots with animation -->
  <g transform="translate(0, 12.5)">
    <circle cx="200" cy="237.5" r="15" fill="white">
      <animate attributeName="opacity" values="1;0.3;1" dur="2s" repeatCount="indefinite" begin="0s"/>
    </circle>
    <circle cx="250" cy="237.5" r="15" fill="white">
      <animate attributeName="opacity" values="1;0.3;1" dur="2s" repeatCount="indefinite" begin="0.3s"/>
    </circle>
    <circle cx="300" cy="237.5" r="15" fill="white">
      <animate attributeName="opacity" values="1;0.3;1" dur="2s" repeatCount="indefinite" begin="0.6s"/>
    </circle>
  </g>
</svg>